<svg xmlns="http://www.w3.org/2000/svg" viewBox="0 0 800 440" role="img" aria-label="Diagrama Azaila Community">
  <defs>
    <marker id="azaila-arrow" markerWidth="8" markerHeight="8" refX="7" refY="4" orient="auto">
      <path d="M0,0 L8,4 L0,8 Z" fill="#4a0f07"/>
    </marker>
  </defs>

  <rect width="800" height="440" fill="#ffffff" stroke="#b74e22" stroke-width="2" rx="12"/>

  <text x="24" y="32" fill="#4a0f07" font-family="Arial, sans-serif" font-size="20" font-weight="700">Azaila Community</text>
  <text x="24" y="52" fill="#711e09" font-family="Arial, sans-serif" font-size="12">API REST | Spring Boot | MVC | MySQL</text>

  <text x="24" y="78" fill="#b74e22" font-family="Arial, sans-serif" font-size="11" font-weight="700">ARQUITECTURA MVC</text>

  <rect x="24" y="88" width="90" height="38" rx="6" fill="#fbd090" stroke="#b74e22" stroke-width="1.5"/>
  <text x="69" y="112" fill="#4a0f07" font-family="Arial, sans-serif" font-size="11" font-weight="700" text-anchor="middle">Cliente</text>

  <rect x="130" y="88" width="100" height="38" rx="6" fill="#fbd090" stroke="#b74e22" stroke-width="1.5"/>
  <text x="180" y="112" fill="#4a0f07" font-family="Arial, sans-serif" font-size="11" font-weight="700" text-anchor="middle">Controller</text>

  <rect x="246" y="88" width="90" height="38" rx="6" fill="#fbd090" stroke="#b74e22" stroke-width="1.5"/>
  <text x="291" y="112" fill="#4a0f07" font-family="Arial, sans-serif" font-size="11" font-weight="700" text-anchor="middle">Service</text>

  <rect x="352" y="88" width="96" height="38" rx="6" fill="#fbd090" stroke="#b74e22" stroke-width="1.5"/>
  <text x="400" y="112" fill="#4a0f07" font-family="Arial, sans-serif" font-size="11" font-weight="700" text-anchor="middle">Repository</text>

  <rect x="464" y="88" width="80" height="38" rx="6" fill="#711e09"/>
  <text x="504" y="112" fill="#ffffff" font-family="Arial, sans-serif" font-size="11" font-weight="700" text-anchor="middle">MySQL</text>

  <g stroke="#4a0f07" stroke-width="1.5" fill="none" marker-end="url(#azaila-arrow)">
    <line x1="114" y1="107" x2="126" y2="107"/>
    <line x1="230" y1="107" x2="242" y2="107"/>
    <line x1="336" y1="107" x2="348" y2="107"/>
    <line x1="448" y1="107" x2="460" y2="107"/>
  </g>

  <text x="24" y="158" fill="#b74e22" font-family="Arial, sans-serif" font-size="11" font-weight="700">MODELO DE DATOS (JPA)</text>

  <rect x="320" y="172" width="110" height="34" rx="6" fill="#f4914b" stroke="#711e09" stroke-width="1.5" stroke-dasharray="5 3"/>
  <text x="375" y="194" fill="#4a0f07" font-family="Arial, sans-serif" font-size="11" font-weight="700" text-anchor="middle">Persona</text>

  <rect x="80" y="248" width="100" height="32" rx="6" fill="#fef7ed" stroke="#b74e22" stroke-width="1.5"/>
  <text x="130" y="268" fill="#4a0f07" font-family="Arial, sans-serif" font-size="10" font-weight="700" text-anchor="middle">Habitante</text>

  <rect x="325" y="248" width="100" height="32" rx="6" fill="#fef7ed" stroke="#b74e22" stroke-width="1.5"/>
  <text x="375" y="268" fill="#4a0f07" font-family="Arial, sans-serif" font-size="10" font-weight="700" text-anchor="middle">Organizador</text>

  <rect x="570" y="248" width="80" height="32" rx="6" fill="#fef7ed" stroke="#b74e22" stroke-width="1.5"/>
  <text x="610" y="268" fill="#4a0f07" font-family="Arial, sans-serif" font-size="10" font-weight="700" text-anchor="middle">Staff</text>

  <rect x="660" y="172" width="96" height="34" rx="6" fill="#b74e22"/>
  <text x="708" y="194" fill="#ffffff" font-family="Arial, sans-serif" font-size="11" font-weight="700" text-anchor="middle">Evento</text>

  <rect x="325" y="330" width="120" height="34" rx="6" fill="#fef7ed" stroke="#711e09" stroke-width="1.5"/>
  <text x="385" y="352" fill="#4a0f07" font-family="Arial, sans-serif" font-size="10" font-weight="700" text-anchor="middle">Participacion</text>

  <g stroke="#711e09" stroke-width="1.5" fill="none">
    <line x1="130" y1="248" x2="350" y2="206"/>
    <line x1="375" y1="248" x2="375" y2="206"/>
    <line x1="610" y1="248" x2="390" y2="206"/>
    <line x1="445" y1="264" x2="655" y2="206"/>
    <line x1="130" y1="280" x2="340" y2="330"/>
    <line x1="375" y1="280" x2="375" y2="330"/>
    <line x1="610" y1="280" x2="430" y2="330"/>
    <line x1="445" y1="364" x2="660" y2="206"/>
  </g>

  <rect x="24" y="330" width="220" height="88" rx="8" fill="#fef7ed" stroke="#cf7362" stroke-width="1"/>
  <text x="38" y="352" fill="#4a0f07" font-family="Arial, sans-serif" font-size="10" font-weight="700">Endpoints</text>
  <text x="38" y="370" fill="#711e09" font-family="Arial, sans-serif" font-size="9">/habitantes /organizadores</text>
  <text x="38" y="384" fill="#711e09" font-family="Arial, sans-serif" font-size="9">/staff /eventos /participaciones</text>
  <text x="38" y="402" fill="#711e09" font-family="Arial, sans-serif" font-size="9">Eventos comunitarios - Azaila, Teruel</text>
</svg>
